<svg xmlns="http://www.w3.org/2000/svg" xmlns:xlink="http://www.w3.org/1999/xlink" width="324" zoomAndPan="magnify" viewBox="0 0 242.87999 38.999999" height="52" preserveAspectRatio="xMidYMid meet" version="1.0"><defs><g><g id="id1"/></g></defs><g fill="rgb(4.309082%, 3.138733%, 33.729553%)" fill-opacity="1"><g transform="translate(40.984679, 33.664879)"><g><path d="M 4.707031 -13.9375 L 4.707031 -24.335938 C 4.707031 -24.457031 4.582031 -24.613281 4.367188 -24.613281 L 0.339844 -24.613281 C 0.152344 -24.613281 0 -24.457031 0 -24.335938 L 0 -13.9375 Z M 18.398438 -24.613281 L 14.367188 -24.613281 C 14.183594 -24.613281 14.027344 -24.457031 14.027344 -24.335938 L 14.027344 -9.199219 L 4.707031 -9.199219 L 4.707031 -9.230469 L 0 -9.230469 L 0 -0.277344 C 0 -0.152344 0.152344 0 0.339844 0 L 4.367188 0 C 4.582031 0 4.707031 -0.152344 4.707031 -0.277344 L 4.707031 -4.613281 L 14.027344 -4.613281 L 14.027344 -0.277344 C 14.027344 -0.152344 14.183594 0 14.367188 0 L 18.398438 0 C 18.613281 0 18.734375 -0.152344 18.734375 -0.277344 L 18.734375 -24.335938 C 18.734375 -24.457031 18.613281 -24.613281 18.398438 -24.613281 Z M 18.398438 -24.613281 "/></g></g></g><g fill="rgb(4.309082%, 3.138733%, 33.729553%)" fill-opacity="1"><g transform="translate(60.670005, 33.664879)"><g><path d="M 19.320312 -0.371094 L 9.96875 -24.425781 C 9.875 -24.671875 9.445312 -24.671875 9.351562 -24.425781 L 0.03125 -0.371094 C -0.0625 -0.183594 0.0625 0 0.339844 0 L 4.554688 0 C 4.675781 0 4.828125 -0.0625 4.859375 -0.183594 L 9.660156 -13.90625 L 14.519531 -0.183594 C 14.550781 -0.0625 14.707031 0 14.796875 0 L 19.042969 0 C 19.257812 0 19.414062 -0.183594 19.320312 -0.371094 Z M 19.320312 -0.371094 "/></g></g></g><g fill="rgb(4.309082%, 3.138733%, 33.729553%)" fill-opacity="1"><g transform="translate(80.970501, 33.664879)"><g><path d="M 14.058594 -4.523438 C 11.074219 -4.398438 4.738281 -4.707031 4.738281 -12.304688 C 4.738281 -18.152344 8.707031 -20.398438 14.058594 -20.121094 L 14.058594 -14.675781 L 18.765625 -14.675781 L 18.765625 -24.335938 C 18.765625 -24.457031 18.644531 -24.613281 18.429688 -24.613281 L 14.429688 -24.613281 C 8.398438 -24.613281 0 -23.226562 0 -12.304688 C 0 -1.785156 8.304688 0 14.429688 0 L 18.429688 0 C 18.644531 0 18.765625 -0.152344 18.765625 -0.277344 L 18.765625 -4.523438 Z M 14.058594 -4.523438 "/></g></g></g><g fill="rgb(4.309082%, 3.138733%, 33.729553%)" fill-opacity="1"><g transform="translate(100.686585, 33.664879)"><g><path d="M 19.628906 -0.460938 L 9.753906 -12.089844 L 19.535156 -24.148438 C 19.75 -24.367188 19.597656 -24.613281 19.257812 -24.613281 L 14.242188 -24.613281 C 14.183594 -24.613281 13.996094 -24.550781 13.96875 -24.519531 L 4.707031 -13.136719 L 4.707031 -24.335938 C 4.707031 -24.457031 4.582031 -24.613281 4.398438 -24.613281 L 0.339844 -24.613281 C 0.152344 -24.613281 0 -24.457031 0 -24.335938 L 0 -1.507812 C 0 -1.507812 6 -8.304688 6.613281 -8.953125 L 13.78125 -0.09375 C 13.8125 -0.0625 13.996094 0 14.058594 0 L 19.351562 0 C 19.660156 0 19.8125 -0.214844 19.628906 -0.460938 Z M 19.628906 -0.460938 "/></g></g></g><g fill="rgb(50.588989%, 0%, 99.21875%)" fill-opacity="1"><g transform="translate(121.43999, 32.412675)"><g><path d="M 2.671875 0 L 2.671875 -21.265625 L 7.1875 -21.265625 L 7.1875 -3.71875 L 15.8125 -3.71875 L 15.8125 0 Z M 2.671875 0 "/></g></g></g><g fill="rgb(50.588989%, 0%, 99.21875%)" fill-opacity="1"><g transform="translate(138.267375, 32.412675)"><g><path d="M 15.703125 0 L 14.15625 -5.0625 L 6.40625 -5.0625 L 4.859375 0 L 0 0 L 7.5 -21.359375 L 13.015625 -21.359375 L 20.5625 0 Z M 13.078125 -8.84375 C 11.648438 -13.4375 10.847656 -16.03125 10.671875 -16.625 C 10.492188 -17.226562 10.363281 -17.707031 10.28125 -18.0625 C 9.96875 -16.8125 9.050781 -13.738281 7.53125 -8.84375 Z M 13.078125 -8.84375 "/></g></g></g><g fill="rgb(50.588989%, 0%, 99.21875%)" fill-opacity="1"><g transform="translate(158.818019, 32.412675)"><g><path d="M 10.890625 0 L 6.375 0 L 6.375 -17.515625 L 0.59375 -17.515625 L 0.59375 -21.265625 L 16.65625 -21.265625 L 16.65625 -17.515625 L 10.890625 -17.515625 Z M 10.890625 0 "/></g></g></g><g fill="rgb(50.588989%, 0%, 99.21875%)" fill-opacity="1"><g transform="translate(176.067174, 32.412675)"><g><path d="M 15.703125 0 L 14.15625 -5.0625 L 6.40625 -5.0625 L 4.859375 0 L 0 0 L 7.5 -21.359375 L 13.015625 -21.359375 L 20.5625 0 Z M 13.078125 -8.84375 C 11.648438 -13.4375 10.847656 -16.03125 10.671875 -16.625 C 10.492188 -17.226562 10.363281 -17.707031 10.28125 -18.0625 C 9.96875 -16.8125 9.050781 -13.738281 7.53125 -8.84375 Z M 13.078125 -8.84375 "/></g></g></g><g fill="rgb(50.588989%, 0%, 99.21875%)" fill-opacity="1"><g transform="translate(196.617818, 32.412675)"><g><path d="M 11.6875 0 L 6.5625 -16.6875 L 6.4375 -16.6875 C 6.613281 -13.289062 6.703125 -11.023438 6.703125 -9.890625 L 6.703125 0 L 2.671875 0 L 2.671875 -21.265625 L 8.8125 -21.265625 L 13.84375 -5 L 13.9375 -5 L 19.28125 -21.265625 L 25.421875 -21.265625 L 25.421875 0 L 21.21875 0 L 21.21875 -10.0625 C 21.21875 -10.539062 21.222656 -11.085938 21.234375 -11.703125 C 21.242188 -12.328125 21.3125 -13.976562 21.4375 -16.65625 L 21.296875 -16.65625 L 15.8125 0 Z M 11.6875 0 "/></g></g></g></svg>